# xmcd CD database file
#
# Track frame offsets:
#	150
#	26847
#	53147
#	84420
#	120001
#	140061
#	175285
#	201897
#	245699
#	265274
#
# Disc length: 4300 seconds
#
# Revision: 1
# Processed by: cddbd v1.5.2PL0 Copyright (c) Steve Scherf et al.
# Submitted via: CDex 1.50
#
DISCID=8910ca0a
DTITLE=Miles Davis                         - 'Round about midnight and Cookin'
DYEAR=1900
DGENRE=Jazz
TTITLE0='Round Midnight
TTITLE1=Ah-Leu-Cha
TTITLE2=All Of You
TTITLE3=Bye Bye Blackbird Part 1 and 2
TTITLE4=Tadd's Delight 
TTITLE5=Dear Old Stockholm
TTITLE6=My Funny Valentine 
TTITLE7=Blues By Five 
TTITLE8=Airegin
TTITLE9=Tune-Up/When Lights Are Low 
EXTD=
EXTT0=
EXTT1=
EXTT2=
EXTT3=
EXTT4=
EXTT5=
EXTT6=
EXTT7=
EXTT8=
EXTT9=
PLAYORDER=
